<mxfile host="app.diagrams.net" agent="Mozilla/5.0 (Windows NT 10.0; Win64; x64) AppleWebKit/537.36 (KHTML, like Gecko) Chrome/131.0.0.0 Safari/537.36 Edg/131.0.0.0" version="25.0.3">
  <diagram name="Page-1" id="VeGytyR1-bXpPuQEmVSK">
    <mxGraphModel dx="1426" dy="1891" grid="1" gridSize="10" guides="1" tooltips="1" connect="1" arrows="1" fold="1" page="1" pageScale="1" pageWidth="850" pageHeight="1100" math="0" shadow="0">
      <root>
        <mxCell id="0" />
        <mxCell id="1" parent="0" />
        <mxCell id="DowVPAKKaxw2EQJ9GW-g-17" value="" style="edgeStyle=orthogonalEdgeStyle;rounded=0;orthogonalLoop=1;jettySize=auto;html=1;" edge="1" parent="1" source="DowVPAKKaxw2EQJ9GW-g-14" target="DowVPAKKaxw2EQJ9GW-g-15">
          <mxGeometry relative="1" as="geometry">
            <mxPoint x="530" y="250" as="targetPoint" />
            <Array as="points">
              <mxPoint x="500" y="280" />
              <mxPoint x="500" y="280" />
            </Array>
          </mxGeometry>
        </mxCell>
        <mxCell id="DowVPAKKaxw2EQJ9GW-g-14" value="home" style="shape=umlFrame;whiteSpace=wrap;html=1;pointerEvents=0;width=50;height=20;" vertex="1" parent="1">
          <mxGeometry x="90" y="170" width="170" height="200" as="geometry" />
        </mxCell>
        <mxCell id="DowVPAKKaxw2EQJ9GW-g-15" value="login" style="shape=umlFrame;whiteSpace=wrap;html=1;pointerEvents=0;width=50;height=20;" vertex="1" parent="1">
          <mxGeometry x="550" y="110" width="170" height="200" as="geometry" />
        </mxCell>
        <mxCell id="DowVPAKKaxw2EQJ9GW-g-19" value="" style="edgeStyle=orthogonalEdgeStyle;rounded=0;orthogonalLoop=1;jettySize=auto;html=1;" edge="1" parent="1" source="DowVPAKKaxw2EQJ9GW-g-18" target="DowVPAKKaxw2EQJ9GW-g-15">
          <mxGeometry relative="1" as="geometry">
            <Array as="points">
              <mxPoint x="770" y="230" />
              <mxPoint x="770" y="230" />
            </Array>
          </mxGeometry>
        </mxCell>
        <mxCell id="DowVPAKKaxw2EQJ9GW-g-25" style="edgeStyle=orthogonalEdgeStyle;rounded=0;orthogonalLoop=1;jettySize=auto;html=1;" edge="1" parent="1" source="DowVPAKKaxw2EQJ9GW-g-18" target="DowVPAKKaxw2EQJ9GW-g-24">
          <mxGeometry relative="1" as="geometry">
            <Array as="points">
              <mxPoint x="885" y="370" />
              <mxPoint x="755" y="370" />
            </Array>
          </mxGeometry>
        </mxCell>
        <mxCell id="DowVPAKKaxw2EQJ9GW-g-18" value="reigister" style="shape=umlFrame;whiteSpace=wrap;html=1;pointerEvents=0;width=50;height=20;" vertex="1" parent="1">
          <mxGeometry x="800" y="105" width="170" height="200" as="geometry" />
        </mxCell>
        <mxCell id="DowVPAKKaxw2EQJ9GW-g-22" style="edgeStyle=orthogonalEdgeStyle;rounded=0;orthogonalLoop=1;jettySize=auto;html=1;entryX=0.006;entryY=0.625;entryDx=0;entryDy=0;entryPerimeter=0;" edge="1" parent="1" source="DowVPAKKaxw2EQJ9GW-g-15" target="DowVPAKKaxw2EQJ9GW-g-18">
          <mxGeometry relative="1" as="geometry">
            <Array as="points">
              <mxPoint x="750" y="230" />
              <mxPoint x="750" y="230" />
            </Array>
          </mxGeometry>
        </mxCell>
        <mxCell id="DowVPAKKaxw2EQJ9GW-g-23" value="settings" style="shape=umlFrame;whiteSpace=wrap;html=1;pointerEvents=0;width=50;height=20;" vertex="1" parent="1">
          <mxGeometry x="930" y="430" width="170" height="200" as="geometry" />
        </mxCell>
        <mxCell id="DowVPAKKaxw2EQJ9GW-g-27" style="edgeStyle=orthogonalEdgeStyle;rounded=0;orthogonalLoop=1;jettySize=auto;html=1;" edge="1" parent="1" source="DowVPAKKaxw2EQJ9GW-g-24" target="DowVPAKKaxw2EQJ9GW-g-23">
          <mxGeometry relative="1" as="geometry" />
        </mxCell>
        <mxCell id="DowVPAKKaxw2EQJ9GW-g-24" value="profile" style="shape=umlFrame;whiteSpace=wrap;html=1;pointerEvents=0;width=50;height=20;" vertex="1" parent="1">
          <mxGeometry x="690" y="430" width="170" height="200" as="geometry" />
        </mxCell>
        <mxCell id="DowVPAKKaxw2EQJ9GW-g-26" style="edgeStyle=orthogonalEdgeStyle;rounded=0;orthogonalLoop=1;jettySize=auto;html=1;" edge="1" parent="1" source="DowVPAKKaxw2EQJ9GW-g-15" target="DowVPAKKaxw2EQJ9GW-g-24">
          <mxGeometry relative="1" as="geometry">
            <Array as="points">
              <mxPoint x="635" y="370" />
              <mxPoint x="755" y="370" />
            </Array>
          </mxGeometry>
        </mxCell>
        <mxCell id="DowVPAKKaxw2EQJ9GW-g-28" style="edgeStyle=orthogonalEdgeStyle;rounded=0;orthogonalLoop=1;jettySize=auto;html=1;" edge="1" parent="1" source="DowVPAKKaxw2EQJ9GW-g-23" target="DowVPAKKaxw2EQJ9GW-g-24">
          <mxGeometry relative="1" as="geometry">
            <mxPoint x="850" y="530" as="targetPoint" />
            <Array as="points" />
          </mxGeometry>
        </mxCell>
        <mxCell id="DowVPAKKaxw2EQJ9GW-g-29" value="TECHRX screens&lt;div&gt;&lt;br&gt;&lt;/div&gt;" style="text;html=1;align=center;verticalAlign=middle;whiteSpace=wrap;rounded=0;fillColor=#dae8fc;fillStyle=solid;strokeColor=#6c8ebf;" vertex="1" parent="1">
          <mxGeometry x="400" y="-50" width="170" height="30" as="geometry" />
        </mxCell>
        <mxCell id="DowVPAKKaxw2EQJ9GW-g-39" style="edgeStyle=orthogonalEdgeStyle;rounded=0;orthogonalLoop=1;jettySize=auto;html=1;" edge="1" parent="1" source="DowVPAKKaxw2EQJ9GW-g-30" target="DowVPAKKaxw2EQJ9GW-g-31">
          <mxGeometry relative="1" as="geometry">
            <Array as="points">
              <mxPoint x="495" y="800" />
            </Array>
          </mxGeometry>
        </mxCell>
        <mxCell id="DowVPAKKaxw2EQJ9GW-g-30" value="ticket details" style="shape=umlFrame;whiteSpace=wrap;html=1;pointerEvents=0;width=50;height=20;" vertex="1" parent="1">
          <mxGeometry x="690" y="710" width="170" height="200" as="geometry" />
        </mxCell>
        <mxCell id="DowVPAKKaxw2EQJ9GW-g-31" value="all tickets" style="shape=umlFrame;whiteSpace=wrap;html=1;pointerEvents=0;width=50;height=20;" vertex="1" parent="1">
          <mxGeometry x="410" y="440" width="170" height="200" as="geometry" />
        </mxCell>
        <mxCell id="DowVPAKKaxw2EQJ9GW-g-32" style="edgeStyle=orthogonalEdgeStyle;rounded=0;orthogonalLoop=1;jettySize=auto;html=1;entryX=0.982;entryY=0.45;entryDx=0;entryDy=0;entryPerimeter=0;" edge="1" parent="1" source="DowVPAKKaxw2EQJ9GW-g-24" target="DowVPAKKaxw2EQJ9GW-g-31">
          <mxGeometry relative="1" as="geometry" />
        </mxCell>
        <mxCell id="DowVPAKKaxw2EQJ9GW-g-33" style="edgeStyle=orthogonalEdgeStyle;rounded=0;orthogonalLoop=1;jettySize=auto;html=1;" edge="1" parent="1" source="DowVPAKKaxw2EQJ9GW-g-31">
          <mxGeometry relative="1" as="geometry">
            <mxPoint x="690" y="530" as="targetPoint" />
            <Array as="points">
              <mxPoint x="660" y="530" />
              <mxPoint x="660" y="530" />
            </Array>
          </mxGeometry>
        </mxCell>
        <mxCell id="DowVPAKKaxw2EQJ9GW-g-34" style="edgeStyle=orthogonalEdgeStyle;rounded=0;orthogonalLoop=1;jettySize=auto;html=1;entryX=0.5;entryY=0.02;entryDx=0;entryDy=0;entryPerimeter=0;" edge="1" parent="1" source="DowVPAKKaxw2EQJ9GW-g-24" target="DowVPAKKaxw2EQJ9GW-g-30">
          <mxGeometry relative="1" as="geometry" />
        </mxCell>
        <mxCell id="DowVPAKKaxw2EQJ9GW-g-37" style="edgeStyle=orthogonalEdgeStyle;rounded=0;orthogonalLoop=1;jettySize=auto;html=1;entryX=0.5;entryY=1;entryDx=0;entryDy=0;entryPerimeter=0;" edge="1" parent="1" source="DowVPAKKaxw2EQJ9GW-g-30" target="DowVPAKKaxw2EQJ9GW-g-24">
          <mxGeometry relative="1" as="geometry" />
        </mxCell>
        <mxCell id="DowVPAKKaxw2EQJ9GW-g-38" style="edgeStyle=orthogonalEdgeStyle;rounded=0;orthogonalLoop=1;jettySize=auto;html=1;entryX=-0.006;entryY=0.445;entryDx=0;entryDy=0;entryPerimeter=0;" edge="1" parent="1" source="DowVPAKKaxw2EQJ9GW-g-31" target="DowVPAKKaxw2EQJ9GW-g-30">
          <mxGeometry relative="1" as="geometry">
            <Array as="points">
              <mxPoint x="495" y="800" />
            </Array>
          </mxGeometry>
        </mxCell>
        <mxCell id="DowVPAKKaxw2EQJ9GW-g-40" style="edgeStyle=orthogonalEdgeStyle;rounded=0;orthogonalLoop=1;jettySize=auto;html=1;entryX=-0.012;entryY=0.46;entryDx=0;entryDy=0;entryPerimeter=0;" edge="1" parent="1" source="DowVPAKKaxw2EQJ9GW-g-14" target="DowVPAKKaxw2EQJ9GW-g-30">
          <mxGeometry relative="1" as="geometry">
            <Array as="points">
              <mxPoint x="175" y="800" />
              <mxPoint x="688" y="800" />
            </Array>
          </mxGeometry>
        </mxCell>
      </root>
    </mxGraphModel>
  </diagram>
</mxfile>
